<?xml version="1.0" encoding="utf-8"?>
<!-- Generator: Adobe Illustrator 19.1.0, SVG Export Plug-In . SVG Version: 6.00 Build 0)  -->
<!DOCTYPE svg PUBLIC "-//W3C//DTD SVG 1.1//EN" "http://www.w3.org/Graphics/SVG/1.1/DTD/svg11.dtd">
<svg version="1.1" id="Layer_1" xmlns="http://www.w3.org/2000/svg" xmlns:xlink="http://www.w3.org/1999/xlink" x="0px" y="0px"
	 viewBox="0 0 44 18.9" enable-background="new 0 0 44 18.9" xml:space="preserve">
<g display="none">
	<polygon display="inline" fill="#D3263B" points="35.5,1.5 15.9,2 0,14 9,18.8 27,12.8 32,6.5 39.5,8 44,4 35.5,4 	"/>
	<polygon display="inline" fill="#E03653" points="9,18.8 15.9,2 27,12.8 	"/>
	<polygon display="inline" fill="#E0B053" points="15.9,2 18,7 22,7 	"/>
	<polygon display="inline" fill="#848484" points="39.5,8 39.5,18.8 42.5,14.5 42,5.5 	"/>
	<polygon display="inline" fill="#848484" points="39.5,13 27,12.8 20.2,15 39.5,15 	"/>
	<polygon display="inline" fill="#9FC4DD" points="27,12.8 39.5,17.3 10,18.8 	"/>
	<g display="inline">
		<polygon fill="#FFD500" points="3.6,16.8 6.2,12.9 8.6,14.8 12.1,12.9 13.2,14.8 16.2,12.9 16.2,17.3 9.9,18.9 		"/>
		<polygon fill="#FFAC00" points="3.6,16.8 9.9,12.9 8.2,17.3 13.2,14.8 13.2,18 9.9,18.9 		"/>
	</g>
	<g display="inline">
		<polygon fill="#FFD500" points="24.7,3.8 27.3,0 29.7,1.9 33.2,0 34.3,1.9 37.3,0 37.3,4.3 31,6 		"/>
		<polygon fill="#FFAC00" points="24.7,3.8 31,0 29.3,4.3 34.3,1.9 34.3,5.1 31,6 		"/>
	</g>
</g>
<g>
	<polygon fill="#4E45FF" points="36.7,1.8 17.1,2.3 1.2,14.3 10.2,19.1 28.2,13.1 33.2,6.8 40.7,8.3 45.2,4.3 36.7,4.3 	"/>
	<polygon fill="#1105FF" points="10.2,19.1 17.1,2.3 28.2,13.1 	"/>
	<polygon fill="#E0B053" points="17.1,2.3 19.2,7.3 23.2,7.3 	"/>
	<polygon fill="#848484" points="40.7,8.3 40.7,19.1 43.7,14.8 43.2,5.8 	"/>
	<polygon fill="#848484" points="40.7,13.3 28.2,13.1 21.4,15.4 40.7,15.4 	"/>
	<polygon fill="#9FC4DD" points="28.2,13.1 40.7,17.7 11.2,19.1 	"/>
	<g>
		<polygon fill="#FFD500" points="4.7,17.1 7.4,13.3 9.7,15.2 13.2,13.3 14.4,15.2 17.4,13.3 17.4,17.6 11.1,19.3 		"/>
		<polygon fill="#FFAC00" points="4.7,17.1 11.1,13.3 9.4,17.6 14.4,15.2 14.4,18.4 11.1,19.3 		"/>
	</g>
	<g>
		<polygon fill="#FFD500" points="25.8,4.2 28.5,0.3 30.8,2.2 34.3,0.3 35.5,2.2 38.5,0.3 38.5,4.7 32.2,6.3 		"/>
		<polygon fill="#FFAC00" points="25.8,4.2 32.2,0.3 30.5,4.7 35.5,2.2 35.5,5.5 32.2,6.3 		"/>
	</g>
</g>
</svg>
