<?xml version="1.0" encoding="utf-8"?>
<!-- Generator: Adobe Illustrator 19.1.0, SVG Export Plug-In . SVG Version: 6.00 Build 0)  -->
<!DOCTYPE svg PUBLIC "-//W3C//DTD SVG 1.1//EN" "http://www.w3.org/Graphics/SVG/1.1/DTD/svg11.dtd">
<svg version="1.1" id="Layer_1" xmlns="http://www.w3.org/2000/svg" xmlns:xlink="http://www.w3.org/1999/xlink" x="0px" y="0px"
	 viewBox="0 0 199.9 214.9" enable-background="new 0 0 199.9 214.9" xml:space="preserve">
<g>
	<polygon fill="#DD0006" points="96.5,0 106,0 109.9,17.1 89.9,17.1 	"/>
	<g>
		<rect x="71.7" y="83.9" fill="#727272" width="3.4" height="26.7"/>
		<rect x="69.9" y="83.9" fill="#848484" width="3.4" height="26.7"/>
	</g>
	<g>
		<rect x="125.7" y="83.9" fill="#727272" width="3.4" height="26.7"/>
		<rect x="127.6" y="83.9" fill="#848484" width="3.4" height="26.7"/>
	</g>
	<g>
		<g>
			<polygon fill="#D3263B" points="76,98.8 0,156.4 0,175.6 73.5,161.7 			"/>
			<polygon fill="#A31F36" points="76.3,98.1 46.8,120.9 42.7,167.6 73.5,161.7 74.4,112.9 			"/>
			<polygon fill="#8C102B" points="70,158 64.5,114.8 76.3,98.1 74.4,116.3 73.5,161.7 			"/>
		</g>
		<g>
			<polygon fill="#D3263B" points="123.9,98.8 199.9,156.4 199.9,175.6 126.4,161.7 			"/>
			<polygon fill="#A31F36" points="123.6,98.1 153.1,120.9 157.2,167.6 126.4,161.7 125.5,112.9 			"/>
			<polygon fill="#8C102B" points="129.9,158 135.4,114.8 123.6,98.1 125.5,116.3 126.4,161.7 			"/>
		</g>
		<polygon fill="#DD0006" points="83.5,34 74.4,112.9 74.4,171.5 125.5,171.5 125.5,107.7 114.8,32.6 		"/>
		<polygon fill="#C10006" points="94.6,107.7 74.4,112.9 83.5,34 94.6,61.8 96.2,107.7 		"/>
		<polygon fill="#C10006" points="105.5,107.7 125.6,112.9 114.6,32.1 105.5,61.8 103.9,107.7 		"/>
		<polygon fill="#B20006" points="96.2,107.7 74.4,172.9 74.4,112.9 		"/>
		<polygon fill="#B20006" points="103.9,107.7 125.6,172.9 125.6,118.3 125.6,112.9 		"/>
		<polygon fill="#8A0006" points="114.6,140.1 122,162.1 125.5,169.6 125.6,120.5 125.3,113.3 		"/>
		<polygon fill="#7EADD2" points="93.5,7.4 83.5,34 83.5,71.7 95.4,102.5 104.3,102.5 114.8,71.7 114.8,32.6 107.7,7.4 		"/>
		<polygon fill="#9FC4DD" points="114.8,32.6 83.5,34 83.5,71.7 		"/>
		<polygon fill="#6D9CBC" points="114.8,71.7 83.5,71.7 114.8,32.6 		"/>
		<g>
			<polygon fill="#FFDB27" points="76.3,172.5 72.5,193.3 66.8,179.1 64.5,207.5 60.5,184.4 54.1,204.9 53.6,181.6 48.6,192.3 
				49.8,171.5 			"/>
			<polygon fill="#FFA327" points="52.4,168.5 51.6,195.7 58.9,178.1 55.5,214.9 63,185.8 64.5,212.8 69.2,182.9 71.3,197.3 
				74.1,170.4 			"/>
			<polygon fill="#FFC229" points="55,166.7 56.1,193.7 59.2,175.4 59.5,212.2 62,182.4 64.4,209.1 65.4,178.8 67.4,192.8 
				67.4,165.8 			"/>
			<g>
				<polygon fill="#CECECE" points="76.3,122.8 76.3,171.5 49.8,171.5 49.8,122.8 60.5,112.9 71.2,113.3 				"/>
				<polygon fill="#ADADAD" points="66.8,171.5 66.8,126.6 76.3,122.8 76.3,169.6 				"/>
				<polygon fill="#AFAFAF" points="71.2,113.3 66.8,126.6 76.3,122.8 				"/>
				<polygon fill="#D3D3D3" points="49.8,122.8 57.4,126.6 57.4,171.5 49.8,169.6 				"/>
				<rect x="57.4" y="171.5" fill="#D8D8D8" width="9.5" height="2.8"/>
				<polygon fill="#C1C1C1" points="58.3,174.4 49.8,172.5 49.8,169.6 58.3,171.5 				"/>
				<polygon fill="#999999" points="76.3,172.5 66.8,174.4 66.8,171.5 76.3,169.6 				"/>
				<polygon fill="#C1C1C1" points="60.5,112.9 57.4,126.6 49.8,122.8 				"/>
				<polyline fill="#DD0006" points="49.8,143.1 51.5,145.5 57.4,147.2 66.8,147.2 76.3,143.5 76.3,152.6 66.8,156.4 57.4,156.4 
					49.8,152.9 				"/>
			</g>
			<polygon fill="#DDDDDD" points="66.8,126.6 57.4,126.6 60.5,112.9 71.6,113.8 			"/>
		</g>
		<g>
			<polygon fill="#FFDB27" points="123.6,171.5 127.4,192.3 133.1,178.1 135.4,206.5 139.4,183.5 145.8,204 146.3,180.7 
				151.3,191.4 150.1,170.6 			"/>
			<polygon fill="#FFA327" points="147.5,167.6 148.3,194.7 141,177.2 144.4,213.9 136.9,184.8 135.4,211.9 130.7,182 128.6,196.3 
				125.7,169.5 			"/>
			<polygon fill="#FFC229" points="144.9,165.7 143.8,192.8 140.7,174.4 140.4,211.3 137.9,181.5 135.5,208.1 134.5,177.9 
				132.5,191.8 132.4,164.8 			"/>
			<g>
				<polygon fill="#CECECE" points="123.6,121.9 123.6,170.6 150.1,170.6 150.1,121.9 139.4,111.9 128.6,112.4 				"/>
				<polygon fill="#ADADAD" points="133.1,170.6 133.1,125.6 123.6,121.9 123.6,168.7 				"/>
				<polygon fill="#AFAFAF" points="128.6,112.4 133.1,125.6 123.6,121.9 				"/>
				<polygon fill="#D3D3D3" points="150.1,121.9 142.5,125.6 142.5,170.6 150.1,168.7 				"/>
				<rect x="133.1" y="170.6" fill="#D8D8D8" width="9.5" height="2.8"/>
				<polygon fill="#C1C1C1" points="141.6,173.4 150.1,171.5 150.1,168.7 141.6,170.6 				"/>
				<polygon fill="#999999" points="123.6,171.5 133.1,173.4 133.1,170.6 123.6,168.7 				"/>
				<polygon fill="#C1C1C1" points="139.4,111.9 142.5,125.6 150.1,121.9 				"/>
				<polyline fill="#DD0006" points="150.1,142.2 148.4,144.6 142.5,146.2 133.1,146.2 123.6,142.5 123.6,151.7 133.1,155.4 
					142.5,155.4 150.1,152 				"/>
			</g>
			<polygon fill="#DDDDDD" points="133.1,125.6 142.5,125.6 139.4,111.9 128.3,112.9 			"/>
		</g>
		<g>
			<g>
				<polygon fill="#D7D7D7" points="107,134.5 107,132.6 91.8,132.6 91.8,134.5 89.9,134.5 89.9,138.5 108.9,138.5 108.9,134.5 				
					"/>
				<rect x="91.8" y="161.2" fill="#D7D7D7" width="1.9" height="1.9"/>
				<rect x="105.1" y="161.2" fill="#D7D7D7" width="1.9" height="1.9"/>
			</g>
			<g>
				<polygon fill="#6B6B6B" points="105.1,138.3 105.1,132.6 93.6,132.6 93.6,138.3 87.8,138.3 87.8,142.8 110.9,142.8 110.9,138.3 
									"/>
				<rect x="95.5" y="161.2" fill="#6B6B6B" width="7.6" height="1.9"/>
				<rect x="107" y="160.8" fill="#6B6B6B" width="1.9" height="2.4"/>
				<rect x="89.9" y="160.6" fill="#6B6B6B" width="1.9" height="2.6"/>
			</g>
			<g>
				<polygon fill="#1A1A1A" points="108.9,136.4 107,136.4 107,134.5 103.2,134.5 103.2,132.6 95.5,132.6 95.5,134.5 91.8,134.5 
					91.8,136.4 89.9,136.4 89.9,139.4 108.9,139.4 				"/>
				<rect x="87.8" y="140.2" fill="#1A1A1A" width="23.1" height="4.2"/>
			</g>
			<rect x="87.8" y="161" fill="#151515" width="2.1" height="2.2"/>
			<rect x="108.9" y="161.2" fill="#151515" width="2" height="1.9"/>
			<g>
				<polygon points="108.9,142.1 108.9,138.3 107,138.3 107,136.4 105.1,136.4 105.1,134.5 101.3,134.5 101.3,132.6 97.4,132.6 
					97.4,134.5 93.6,134.5 93.6,136.4 91.8,136.4 91.8,138.3 89.9,138.3 89.9,142.1 87.8,142.1 87.8,161.2 97.4,161.2 97.4,163.2 
					101.3,163.2 101.3,161.2 110.9,161.2 110.9,142.1 				"/>
				<g>
					<rect x="91.8" y="140.2" fill="#FFFFFF" width="1.9" height="1.9"/>
					<rect x="91.8" y="144" fill="#FFFFFF" width="1.9" height="1.9"/>
					<rect x="95.5" y="140.2" fill="#FFFFFF" width="1.9" height="1.9"/>
					<rect x="95.5" y="144" fill="#FFFFFF" width="1.9" height="1.9"/>
					<rect x="93.6" y="142.1" fill="#FFFFFF" width="1.9" height="1.9"/>
				</g>
				<g>
					<rect x="101.3" y="140.2" fill="#FFFFFF" width="1.9" height="1.9"/>
					<rect x="101.3" y="144" fill="#FFFFFF" width="1.9" height="1.9"/>
					<rect x="105.1" y="140.2" fill="#FFFFFF" width="1.9" height="1.9"/>
					<rect x="105.1" y="144" fill="#FFFFFF" width="1.9" height="1.9"/>
					<rect x="103.2" y="142.1" fill="#FFFFFF" width="1.9" height="1.9"/>
				</g>
			</g>
		</g>
	</g>
</g>
</svg>
