<?xml version="1.0" encoding="utf-8"?>
<!-- Generator: Adobe Illustrator 19.1.0, SVG Export Plug-In . SVG Version: 6.00 Build 0)  -->
<!DOCTYPE svg PUBLIC "-//W3C//DTD SVG 1.1//EN" "http://www.w3.org/Graphics/SVG/1.1/DTD/svg11.dtd">
<svg version="1.1" id="Layer_1" xmlns="http://www.w3.org/2000/svg" xmlns:xlink="http://www.w3.org/1999/xlink" x="0px" y="0px"
	 viewBox="0 0 199.9 214.9" enable-background="new 0 0 199.9 214.9" xml:space="preserve">
<g display="none">
	<polygon display="inline" fill="#DD0006" points="96.5,0 106,0 109.9,17.1 89.9,17.1 	"/>
	<g display="inline">
		<rect x="71.7" y="83.9" fill="#727272" width="3.4" height="26.7"/>
		<rect x="69.9" y="83.9" fill="#848484" width="3.4" height="26.7"/>
	</g>
	<g display="inline">
		<rect x="125.7" y="83.9" fill="#727272" width="3.4" height="26.7"/>
		<rect x="127.6" y="83.9" fill="#848484" width="3.4" height="26.7"/>
	</g>
	<g display="inline">
		<g>
			<polygon fill="#D3263B" points="76,98.8 0,156.4 0,175.6 73.5,161.7 			"/>
			<polygon fill="#A31F36" points="76.3,98.1 46.8,120.9 42.7,167.6 73.5,161.7 74.4,112.9 			"/>
			<polygon fill="#8C102B" points="70,158 64.5,114.8 76.3,98.1 74.4,116.3 73.5,161.7 			"/>
		</g>
		<g>
			<polygon fill="#D3263B" points="123.9,98.8 199.9,156.4 199.9,175.6 126.4,161.7 			"/>
			<polygon fill="#A31F36" points="123.6,98.1 153.1,120.9 157.2,167.6 126.4,161.7 125.5,112.9 			"/>
			<polygon fill="#8C102B" points="129.9,158 135.4,114.8 123.6,98.1 125.5,116.3 126.4,161.7 			"/>
		</g>
		<polygon fill="#DD0006" points="83.5,34 74.4,112.9 74.4,171.5 125.5,171.5 125.5,107.7 114.8,32.6 		"/>
		<polygon fill="#C10006" points="94.6,107.7 74.4,112.9 83.5,34 94.6,61.8 96.2,107.7 		"/>
		<polygon fill="#C10006" points="105.5,107.7 125.6,112.9 114.6,32.1 105.5,61.8 103.9,107.7 		"/>
		<polygon fill="#B20006" points="96.2,107.7 74.4,172.9 74.4,112.9 		"/>
		<polygon fill="#B20006" points="103.9,107.7 125.6,172.9 125.6,118.3 125.6,112.9 		"/>
		<polygon fill="#8A0006" points="114.6,140.1 122,162.1 125.5,169.6 125.6,120.5 125.3,113.3 		"/>
		<polygon fill="#7EADD2" points="93.5,7.4 83.5,34 83.5,71.7 95.4,102.5 104.3,102.5 114.8,71.7 114.8,32.6 107.7,7.4 		"/>
		<polygon fill="#9FC4DD" points="114.8,32.6 83.5,34 83.5,71.7 		"/>
		<polygon fill="#6D9CBC" points="114.8,71.7 83.5,71.7 114.8,32.6 		"/>
		<g>
			<polygon fill="#FFDB27" points="76.3,172.5 72.5,193.3 66.8,179.1 64.5,207.5 60.5,184.4 54.1,204.9 53.6,181.6 48.6,192.3 
				49.8,171.5 			"/>
			<polygon fill="#FFA327" points="52.4,168.5 51.6,195.7 58.9,178.1 55.5,214.9 63,185.8 64.5,212.8 69.2,182.9 71.3,197.3 
				74.1,170.4 			"/>
			<polygon fill="#FFC229" points="55,166.7 56.1,193.7 59.2,175.4 59.5,212.2 62,182.4 64.4,209.1 65.4,178.8 67.4,192.8 
				67.4,165.8 			"/>
			<g>
				<polygon fill="#CECECE" points="76.3,122.8 76.3,171.5 49.8,171.5 49.8,122.8 60.5,112.9 71.2,113.3 				"/>
				<polygon fill="#ADADAD" points="66.8,171.5 66.8,126.6 76.3,122.8 76.3,169.6 				"/>
				<polygon fill="#AFAFAF" points="71.2,113.3 66.8,126.6 76.3,122.8 				"/>
				<polygon fill="#D3D3D3" points="49.8,122.8 57.4,126.6 57.4,171.5 49.8,169.6 				"/>
				<rect x="57.4" y="171.5" fill="#D8D8D8" width="9.5" height="2.8"/>
				<polygon fill="#C1C1C1" points="58.3,174.4 49.8,172.5 49.8,169.6 58.3,171.5 				"/>
				<polygon fill="#999999" points="76.3,172.5 66.8,174.4 66.8,171.5 76.3,169.6 				"/>
				<polygon fill="#C1C1C1" points="60.5,112.9 57.4,126.6 49.8,122.8 				"/>
				<polyline fill="#DD0006" points="49.8,143.1 51.5,145.5 57.4,147.2 66.8,147.2 76.3,143.5 76.3,152.6 66.8,156.4 57.4,156.4 
					49.8,152.9 				"/>
			</g>
			<polygon fill="#DDDDDD" points="66.8,126.6 57.4,126.6 60.5,112.9 71.6,113.8 			"/>
		</g>
		<g>
			<polygon fill="#FFDB27" points="123.6,171.5 127.4,192.3 133.1,178.1 135.4,206.5 139.4,183.5 145.8,204 146.3,180.7 
				151.3,191.4 150.1,170.6 			"/>
			<polygon fill="#FFA327" points="147.5,167.6 148.3,194.7 141,177.2 144.4,213.9 136.9,184.8 135.4,211.9 130.7,182 128.6,196.3 
				125.7,169.5 			"/>
			<polygon fill="#FFC229" points="144.9,165.7 143.8,192.8 140.7,174.4 140.4,211.3 137.9,181.5 135.5,208.1 134.5,177.9 
				132.5,191.8 132.4,164.8 			"/>
			<g>
				<polygon fill="#CECECE" points="123.6,121.9 123.6,170.6 150.1,170.6 150.1,121.9 139.4,111.9 128.6,112.4 				"/>
				<polygon fill="#ADADAD" points="133.1,170.6 133.1,125.6 123.6,121.9 123.6,168.7 				"/>
				<polygon fill="#AFAFAF" points="128.6,112.4 133.1,125.6 123.6,121.9 				"/>
				<polygon fill="#D3D3D3" points="150.1,121.9 142.5,125.6 142.5,170.6 150.1,168.7 				"/>
				<rect x="133.1" y="170.6" fill="#D8D8D8" width="9.5" height="2.8"/>
				<polygon fill="#C1C1C1" points="141.6,173.4 150.1,171.5 150.1,168.7 141.6,170.6 				"/>
				<polygon fill="#999999" points="123.6,171.5 133.1,173.4 133.1,170.6 123.6,168.7 				"/>
				<polygon fill="#C1C1C1" points="139.4,111.9 142.5,125.6 150.1,121.9 				"/>
				<polyline fill="#DD0006" points="150.1,142.2 148.4,144.6 142.5,146.2 133.1,146.2 123.6,142.5 123.6,151.7 133.1,155.4 
					142.5,155.4 150.1,152 				"/>
			</g>
			<polygon fill="#DDDDDD" points="133.1,125.6 142.5,125.6 139.4,111.9 128.3,112.9 			"/>
		</g>
		<g>
			<g>
				<polygon fill="#D7D7D7" points="107,134.5 107,132.6 91.8,132.6 91.8,134.5 89.9,134.5 89.9,138.5 108.9,138.5 108.9,134.5 				
					"/>
				<rect x="91.8" y="161.2" fill="#D7D7D7" width="1.9" height="1.9"/>
				<rect x="105.1" y="161.2" fill="#D7D7D7" width="1.9" height="1.9"/>
			</g>
			<g>
				<polygon fill="#6B6B6B" points="105.1,138.3 105.1,132.6 93.6,132.6 93.6,138.3 87.8,138.3 87.8,142.8 110.9,142.8 110.9,138.3 
									"/>
				<rect x="95.5" y="161.2" fill="#6B6B6B" width="7.6" height="1.9"/>
				<rect x="107" y="160.8" fill="#6B6B6B" width="1.9" height="2.4"/>
				<rect x="89.9" y="160.6" fill="#6B6B6B" width="1.9" height="2.6"/>
			</g>
			<g>
				<polygon fill="#1A1A1A" points="108.9,136.4 107,136.4 107,134.5 103.2,134.5 103.2,132.6 95.5,132.6 95.5,134.5 91.8,134.5 
					91.8,136.4 89.9,136.4 89.9,139.4 108.9,139.4 				"/>
				<rect x="87.8" y="140.2" fill="#1A1A1A" width="23.1" height="4.2"/>
			</g>
			<rect x="87.8" y="161" fill="#151515" width="2.1" height="2.2"/>
			<rect x="108.9" y="161.2" fill="#151515" width="2" height="1.9"/>
			<g>
				<polygon points="108.9,142.1 108.9,138.3 107,138.3 107,136.4 105.1,136.4 105.1,134.5 101.3,134.5 101.3,132.6 97.4,132.6 
					97.4,134.5 93.6,134.5 93.6,136.4 91.8,136.4 91.8,138.3 89.9,138.3 89.9,142.1 87.8,142.1 87.8,161.2 97.4,161.2 97.4,163.2 
					101.3,163.2 101.3,161.2 110.9,161.2 110.9,142.1 				"/>
				<g>
					<rect x="91.8" y="140.2" fill="#FFFFFF" width="1.9" height="1.9"/>
					<rect x="91.8" y="144" fill="#FFFFFF" width="1.9" height="1.9"/>
					<rect x="95.5" y="140.2" fill="#FFFFFF" width="1.9" height="1.9"/>
					<rect x="95.5" y="144" fill="#FFFFFF" width="1.9" height="1.9"/>
					<rect x="93.6" y="142.1" fill="#FFFFFF" width="1.9" height="1.9"/>
				</g>
				<g>
					<rect x="101.3" y="140.2" fill="#FFFFFF" width="1.9" height="1.9"/>
					<rect x="101.3" y="144" fill="#FFFFFF" width="1.9" height="1.9"/>
					<rect x="105.1" y="140.2" fill="#FFFFFF" width="1.9" height="1.9"/>
					<rect x="105.1" y="144" fill="#FFFFFF" width="1.9" height="1.9"/>
					<rect x="103.2" y="142.1" fill="#FFFFFF" width="1.9" height="1.9"/>
				</g>
			</g>
		</g>
	</g>
</g>
<g display="none">
	<polygon display="inline" fill="#411FFA" points="96.3,0.9 105.8,0.9 109.7,18 89.6,18 	"/>
	<g display="inline">
		<rect x="71.5" y="84.9" fill="#C99920" width="3.4" height="26.7"/>
		<rect x="69.6" y="84.9" fill="#D0A63C" width="3.4" height="26.7"/>
	</g>
	<g display="inline">
		<rect x="125.6" y="84.9" fill="#C99920" width="3.4" height="26.7"/>
		<rect x="127.4" y="84.9" fill="#D0A63C" width="3.4" height="26.7"/>
	</g>
	<g display="inline">
		<g>
			<polygon fill="#5B3DFA" points="75.8,99.8 -0.4,157.5 -0.4,176.8 73.2,162.9 			"/>
			<polygon fill="#4726FA" points="76.1,99.2 46.5,122 42.4,168.7 73.2,162.9 74.2,114 			"/>
			<polygon fill="#3612F9" points="69.7,159.1 64.2,115.8 76.1,99.2 74.2,117.4 73.2,162.9 			"/>
		</g>
		<g>
			<polygon fill="#5B3DFA" points="123.7,99.8 199.9,157.5 199.9,176.8 126.3,162.9 			"/>
			<polygon fill="#4726FA" points="123.4,99.2 153,122 157.1,168.7 126.3,162.9 125.3,114 			"/>
			<polygon fill="#3612F9" points="129.8,159.1 135.3,115.8 123.4,99.2 125.3,117.4 126.3,162.9 			"/>
		</g>
		<polygon fill="#411FFA" points="83.3,34.9 74.2,114 74.2,172.7 125.3,172.7 125.3,108.7 114.6,33.5 		"/>
		<polygon fill="#3814F9" points="94.4,108.7 74.2,114 83.3,34.9 94.4,62.8 96,108.7 		"/>
		<polygon fill="#3814F9" points="105.3,108.7 125.5,114 114.4,33 105.3,62.8 103.7,108.7 		"/>
		<polygon fill="#340FF9" points="96,108.7 74.2,174.1 74.2,114 		"/>
		<polygon fill="#340FF9" points="103.7,108.7 125.5,174.1 125.5,119.4 125.5,114 		"/>
		<polygon fill="#2700F9" points="114.5,141.3 121.9,163.2 125.3,170.8 125.5,121.6 125.2,114.4 		"/>
		<polygon fill="#FACD29" points="93.3,9.2 83.3,34.9 83.3,72.7 95.2,103.5 104.2,103.5 114.6,72.7 114.6,33.5 107.5,9.2 		"/>
		<polygon fill="#FBDB63" points="114.6,33.5 83.3,34.9 83.3,72.7 		"/>
		<polygon fill="#F9C400" points="114.6,72.7 83.3,72.7 114.6,33.5 		"/>
		<g>
			<polygon fill="#FFDB27" points="76.7,171 72.9,191.9 67.2,177.7 64.8,206.1 60.9,183 54.4,203.6 53.9,180.2 48.9,190.9 
				50.2,170.1 			"/>
			<polygon fill="#FFA327" points="52.7,167.1 52,194.3 59.2,176.7 55.9,213.5 63.4,184.4 64.8,211.5 69.6,181.5 71.7,195.9 
				74.5,169 			"/>
			<polygon fill="#FFC229" points="55.3,165.3 56.5,192.4 59.6,174 59.8,210.9 62.4,181 64.8,207.7 65.7,177.4 67.8,191.4 
				67.8,164.3 			"/>
			<g>
				<polygon fill="#ECDCB1" points="76.1,123.9 76.1,172.7 49.5,172.7 49.5,123.9 60.3,114 71,114.4 				"/>
				<polygon fill="#E0C47E" points="66.6,172.7 66.6,127.7 76.1,123.9 76.1,170.8 				"/>
				<polygon fill="#E0C580" points="71,114.4 66.6,127.7 76.1,123.9 				"/>
				<polygon fill="#EEDFB8" points="49.5,123.9 57.1,127.7 57.1,172.7 49.5,170.8 				"/>
				<rect x="57.1" y="172.7" fill="#F0E3C2" width="9.5" height="2.8"/>
				<polygon fill="#E7D29C" points="58.1,175.6 49.5,173.7 49.5,170.8 58.1,172.7 				"/>
				<polygon fill="#D8B55D" points="76.1,173.7 66.6,175.6 66.6,172.7 76.1,170.8 				"/>
				<polygon fill="#E7D29C" points="60.3,114 57.1,127.7 49.5,123.9 				"/>
				<polyline fill="#411FFA" points="49.5,144.3 51.2,146.7 57.1,148.3 66.6,148.3 76.1,144.6 76.1,153.8 66.6,157.5 57.1,157.5 
					49.5,154.1 				"/>
			</g>
			<polygon fill="#F2E6C9" points="66.6,127.7 57.1,127.7 60.3,114 71.3,114.9 			"/>
		</g>
		<g>
			<polygon fill="#FFDB27" points="123.8,172.3 127.5,193.2 133.2,179 135.6,207.4 139.6,184.4 146,204.9 146.5,181.5 151.6,192.3 
				150.3,171.4 			"/>
			<polygon fill="#FFA327" points="147.7,168.4 148.5,195.6 141.2,178 144.6,214.8 137.1,185.7 135.6,212.8 130.9,182.8 
				128.8,197.2 125.9,170.3 			"/>
			<polygon fill="#FFC229" points="145.1,166.6 144,193.7 140.9,175.3 140.6,212.2 138.1,182.3 135.7,209 134.7,178.7 132.7,192.7 
				132.6,165.6 			"/>
			<g>
				<polygon fill="#ECDCB1" points="123.4,123 123.4,171.8 150,171.8 150,123 139.2,113 128.5,113.5 				"/>
				<polygon fill="#E0C47E" points="132.9,171.8 132.9,126.7 123.4,123 123.4,169.9 				"/>
				<polygon fill="#E0C580" points="128.5,113.5 132.9,126.7 123.4,123 				"/>
				<polygon fill="#EEDFB8" points="150,123 142.4,126.7 142.4,171.8 150,169.9 				"/>
				<rect x="132.9" y="171.8" fill="#F0E3C2" width="9.5" height="2.8"/>
				<polygon fill="#E7D29C" points="141.4,174.6 150,172.7 150,169.9 141.4,171.8 				"/>
				<polygon fill="#D8B55D" points="123.4,172.7 132.9,174.6 132.9,171.8 123.4,169.9 				"/>
				<polygon fill="#E7D29C" points="139.2,113 142.4,126.7 150,123 				"/>
				<polyline fill="#411FFA" points="150,143.3 148.3,145.7 142.4,147.4 132.9,147.4 123.4,143.6 123.4,152.8 132.9,156.6 
					142.4,156.6 150,153.1 				"/>
			</g>
			<polygon fill="#F2E6C9" points="132.9,126.7 142.4,126.7 139.2,113 128.2,114 			"/>
		</g>
		<g>
			<g>
				<polygon fill="#F0E2BF" points="106.8,135.6 106.8,133.7 91.5,133.7 91.5,135.6 89.6,135.6 89.6,139.7 108.7,139.7 108.7,135.6 
									"/>
				<rect x="91.5" y="162.4" fill="#F0E2BF" width="1.9" height="1.9"/>
				<rect x="104.9" y="162.4" fill="#F0E2BF" width="1.9" height="1.9"/>
			</g>
			<g>
				<polygon fill="#C69414" points="104.9,139.4 104.9,133.7 93.4,133.7 93.4,139.5 87.6,139.5 87.6,143.9 110.7,143.9 110.7,139.4 
									"/>
				<rect x="95.3" y="162.4" fill="#C69414" width="7.6" height="1.9"/>
				<rect x="106.8" y="161.9" fill="#C69414" width="1.9" height="2.4"/>
				<rect x="89.6" y="161.7" fill="#C69414" width="1.9" height="2.6"/>
			</g>
			<g>
				<polygon fill="#1A1A1A" points="108.7,137.5 106.8,137.5 106.8,135.6 103,135.6 103,133.7 95.3,133.7 95.3,135.6 91.5,135.6 
					91.5,137.5 89.6,137.5 89.6,140.5 108.7,140.5 				"/>
				<rect x="87.6" y="141.4" fill="#1A1A1A" width="23.1" height="4.2"/>
			</g>
			<rect x="87.6" y="162.1" fill="#151515" width="2.1" height="2.2"/>
			<rect x="108.7" y="162.4" fill="#151515" width="2" height="1.9"/>
			<g>
				<polygon points="108.7,143.3 108.7,139.4 106.8,139.4 106.8,137.5 104.9,137.5 104.9,135.6 101.1,135.6 101.1,133.7 97.2,133.7 
					97.2,135.6 93.4,135.6 93.4,137.5 91.5,137.5 91.5,139.4 89.6,139.4 89.6,143.3 87.6,143.3 87.6,162.4 97.2,162.4 97.2,164.3 
					101.1,164.3 101.1,162.4 110.7,162.4 110.7,143.3 				"/>
				<g>
					<rect x="91.5" y="141.4" fill="#FFFFFF" width="1.9" height="1.9"/>
					<rect x="91.5" y="145.2" fill="#FFFFFF" width="1.9" height="1.9"/>
					<rect x="95.3" y="141.4" fill="#FFFFFF" width="1.9" height="1.9"/>
					<rect x="95.3" y="145.2" fill="#FFFFFF" width="1.9" height="1.9"/>
					<rect x="93.4" y="143.3" fill="#FFFFFF" width="1.9" height="1.9"/>
				</g>
				<g>
					<rect x="101.1" y="141.4" fill="#FFFFFF" width="1.9" height="1.9"/>
					<rect x="101.1" y="145.2" fill="#FFFFFF" width="1.9" height="1.9"/>
					<rect x="104.9" y="141.4" fill="#FFFFFF" width="1.9" height="1.9"/>
					<rect x="104.9" y="145.2" fill="#FFFFFF" width="1.9" height="1.9"/>
					<rect x="103" y="143.3" fill="#FFFFFF" width="1.9" height="1.9"/>
				</g>
			</g>
		</g>
	</g>
</g>
<g display="none">
	<polygon display="inline" fill="#411FFA" points="96.2,1.2 105.7,1.2 109.6,18.3 89.5,18.3 	"/>
	<g display="inline">
		<rect x="71.4" y="85.2" fill="#C99920" width="3.4" height="26.7"/>
		<rect x="69.5" y="85.2" fill="#D0A63C" width="3.4" height="26.7"/>
	</g>
	<g display="inline">
		<rect x="125.5" y="85.2" fill="#C99920" width="3.4" height="26.7"/>
		<rect x="127.3" y="85.2" fill="#D0A63C" width="3.4" height="26.7"/>
	</g>
	<g display="inline">
		<g>
			<polygon fill="#5B3DFA" points="75.7,100.1 -0.5,157.9 -0.5,177.1 73.1,163.2 			"/>
			<polygon fill="#4726FA" points="75.9,99.5 46.4,122.3 42.3,169.1 73.1,163.2 74.1,114.3 			"/>
			<polygon fill="#3612F9" points="69.6,159.5 64.1,116.2 75.9,99.5 74.1,117.8 73.1,163.2 			"/>
		</g>
		<g>
			<polygon fill="#5B3DFA" points="123.6,100.1 199.8,157.9 199.8,177.1 126.2,163.2 			"/>
			<polygon fill="#4726FA" points="123.3,99.5 152.9,122.3 157,169.1 126.2,163.2 125.2,114.3 			"/>
			<polygon fill="#3612F9" points="129.7,159.5 135.2,116.2 123.3,99.5 125.2,117.8 126.2,163.2 			"/>
		</g>
		<polygon fill="#411FFA" points="83.2,35.2 74.1,114.3 74.1,173 125.2,173 125.2,109.1 114.5,33.8 		"/>
		<polygon fill="#2E1DD6" points="94.3,109.1 74.1,114.3 83.2,35.2 94.3,63.1 95.9,109.1 		"/>
		<polygon fill="#2616C1" points="105.2,109.1 125.4,114.3 114.3,33.3 105.2,63.1 103.6,109.1 		"/>
		<polygon fill="#2616C1" points="95.9,109.1 74.1,174.5 74.1,114.3 		"/>
		<polygon fill="#251E9E" points="103.6,109.1 125.4,174.5 125.4,119.7 125.4,114.3 		"/>
		<polygon fill="#150A7F" points="114.3,141.6 121.7,163.6 125.2,171.1 125.4,121.9 125.1,114.8 		"/>
		<polygon fill="#FACD29" points="93.2,9.6 83.2,35.2 83.2,73.1 95.1,103.9 104.1,103.9 114.5,73.1 114.5,33.8 107.4,9.6 		"/>
		<polygon fill="#FBDB63" points="114.5,33.8 83.2,35.2 83.2,73.1 		"/>
		<polygon fill="#F9C400" points="114.5,73.1 83.2,73.1 114.5,33.8 		"/>
		<g>
			<polygon fill="#FFDB27" points="76.6,171.4 72.8,192.2 67.1,178 64.7,206.4 60.8,183.4 54.3,203.9 53.8,180.5 48.8,191.3 
				50,170.4 			"/>
			<polygon fill="#FFA327" points="52.6,167.4 51.8,194.6 59.1,177 55.8,213.8 63.3,184.7 64.7,211.8 69.5,181.8 71.6,196.2 
				74.4,169.3 			"/>
			<polygon fill="#FFC229" points="55.2,165.6 56.4,192.7 59.5,174.3 59.7,211.2 62.3,181.3 64.7,208.1 65.6,177.7 67.7,191.7 
				67.7,164.6 			"/>
			<g>
				<polygon fill="#ECDCB1" points="75.9,124.2 75.9,173 49.4,173 49.4,124.2 60.1,114.3 70.9,114.8 				"/>
				<polygon fill="#E0C47E" points="66.5,173 66.5,128 75.9,124.2 75.9,171.1 				"/>
				<polygon fill="#E0C580" points="70.9,114.8 66.5,128 75.9,124.2 				"/>
				<polygon fill="#EEDFB8" points="49.4,124.2 57,128 57,173 49.4,171.1 				"/>
				<rect x="57" y="173" fill="#F0E3C2" width="9.5" height="2.8"/>
				<polygon fill="#E7D29C" points="57.9,175.9 49.4,174 49.4,171.1 57.9,173 				"/>
				<polygon fill="#D8B55D" points="75.9,174 66.5,175.9 66.5,173 75.9,171.1 				"/>
				<polygon fill="#E7D29C" points="60.1,114.3 57,128 49.4,124.2 				"/>
				<polyline fill="#411FFA" points="49.4,144.6 51.1,147 57,148.6 66.5,148.6 75.9,144.9 75.9,154.1 66.5,157.9 57,157.9 
					49.4,154.4 				"/>
			</g>
			<polygon fill="#F2E6C9" points="66.5,128 57,128 60.1,114.3 71.2,115.2 			"/>
		</g>
		<g>
			<polygon fill="#FFDB27" points="123.7,172.7 127.4,193.5 133.1,179.3 135.5,207.7 139.5,184.7 145.9,205.2 146.4,181.8 
				151.4,192.6 150.2,171.7 			"/>
			<polygon fill="#FFA327" points="147.6,168.7 148.4,195.9 141.1,178.3 144.5,215.2 137,186 135.5,213.1 130.8,183.2 128.6,197.5 
				125.8,170.6 			"/>
			<polygon fill="#FFC229" points="145,166.9 143.9,194 140.8,175.6 140.5,212.5 138,182.6 135.5,209.4 134.6,179 132.6,193 
				132.5,166 			"/>
			<g>
				<polygon fill="#ECDCB1" points="123.3,123.3 123.3,172.1 149.9,172.1 149.9,123.3 139.1,113.3 128.4,113.8 				"/>
				<polygon fill="#E0C47E" points="132.8,172.1 132.8,127.1 123.3,123.3 123.3,170.2 				"/>
				<polygon fill="#E0C580" points="128.4,113.8 132.8,127.1 123.3,123.3 				"/>
				<polygon fill="#EEDFB8" points="149.9,123.3 142.3,127.1 142.3,172.1 149.9,170.2 				"/>
				<rect x="132.8" y="172.1" fill="#F0E3C2" width="9.5" height="2.8"/>
				<polygon fill="#E7D29C" points="141.3,174.9 149.9,173 149.9,170.2 141.3,172.1 				"/>
				<polygon fill="#D8B55D" points="123.3,173 132.8,174.9 132.8,172.1 123.3,170.2 				"/>
				<polygon fill="#E7D29C" points="139.1,113.3 142.3,127.1 149.9,123.3 				"/>
				<polyline fill="#411FFA" points="149.9,143.7 148.2,146 142.3,147.7 132.8,147.7 123.3,144 123.3,153.1 132.8,156.9 
					142.3,156.9 149.9,153.4 				"/>
			</g>
			<polygon fill="#F2E6C9" points="132.8,127.1 142.3,127.1 139.1,113.3 128.1,114.3 			"/>
		</g>
		<g>
			<g>
				<polygon fill="#F0E2BF" points="106.7,136 106.7,134 91.4,134 91.4,136 89.5,136 89.5,140 108.6,140 108.6,136 				"/>
				<rect x="91.4" y="162.7" fill="#F0E2BF" width="1.9" height="1.9"/>
				<rect x="104.8" y="162.7" fill="#F0E2BF" width="1.9" height="1.9"/>
			</g>
			<g>
				<polygon fill="#C69414" points="104.8,139.8 104.8,134 93.3,134 93.3,139.8 87.5,139.8 87.5,144.2 110.6,144.2 110.6,139.8 				
					"/>
				<rect x="95.2" y="162.7" fill="#C69414" width="7.6" height="1.9"/>
				<rect x="106.7" y="162.3" fill="#C69414" width="1.9" height="2.4"/>
				<rect x="89.5" y="162" fill="#C69414" width="1.9" height="2.6"/>
			</g>
			<g>
				<polygon fill="#1A1A1A" points="108.6,137.8 106.7,137.8 106.7,135.9 102.9,135.9 102.9,134 95.2,134 95.2,135.9 91.4,135.9 
					91.4,137.8 89.5,137.8 89.5,140.8 108.6,140.8 				"/>
				<rect x="87.5" y="141.7" fill="#1A1A1A" width="23.1" height="4.2"/>
			</g>
			<rect x="87.5" y="162.5" fill="#151515" width="2.1" height="2.2"/>
			<rect x="108.6" y="162.7" fill="#151515" width="2" height="1.9"/>
			<g>
				<polygon points="108.6,143.6 108.6,139.8 106.7,139.8 106.7,137.8 104.8,137.8 104.8,135.9 101,135.9 101,134 97.1,134 
					97.1,135.9 93.3,135.9 93.3,137.8 91.4,137.8 91.4,139.8 89.5,139.8 89.5,143.6 87.5,143.6 87.5,162.7 97.1,162.7 97.1,164.7 
					101,164.7 101,162.7 110.6,162.7 110.6,143.6 				"/>
				<g>
					<rect x="91.4" y="141.7" fill="#FFFFFF" width="1.9" height="1.9"/>
					<rect x="91.4" y="145.5" fill="#FFFFFF" width="1.9" height="1.9"/>
					<rect x="95.2" y="141.7" fill="#FFFFFF" width="1.9" height="1.9"/>
					<rect x="95.2" y="145.5" fill="#FFFFFF" width="1.9" height="1.9"/>
					<rect x="93.3" y="143.6" fill="#FFFFFF" width="1.9" height="1.9"/>
				</g>
				<g>
					<rect x="101" y="141.7" fill="#FFFFFF" width="1.9" height="1.9"/>
					<rect x="101" y="145.5" fill="#FFFFFF" width="1.9" height="1.9"/>
					<rect x="104.8" y="141.7" fill="#FFFFFF" width="1.9" height="1.9"/>
					<rect x="104.8" y="145.5" fill="#FFFFFF" width="1.9" height="1.9"/>
					<rect x="102.9" y="143.6" fill="#FFFFFF" width="1.9" height="1.9"/>
				</g>
			</g>
		</g>
	</g>
</g>
<g>
	<polygon fill="#9740F6" points="96,1.7 105.6,1.7 109.4,18.8 89.4,18.8 	"/>
	<g>
		<rect x="71.2" y="85.7" fill="#E60DF5" width="3.4" height="26.7"/>
		<rect x="69.4" y="85.7" fill="#E92BF6" width="3.4" height="26.7"/>
	</g>
	<g>
		<rect x="125.3" y="85.7" fill="#E60DF5" width="3.4" height="26.7"/>
		<rect x="127.2" y="85.7" fill="#E92BF6" width="3.4" height="26.7"/>
	</g>
	<g>
		<g>
			<polygon fill="#A559F7" points="75.5,100.6 -0.6,158.3 -0.6,177.6 73,163.7 			"/>
			<polygon fill="#9B47F7" points="75.8,100 46.3,122.8 42.1,169.5 73,163.7 73.9,114.8 			"/>
			<polygon fill="#9134F6" points="69.5,159.9 64,116.6 75.8,100 73.9,118.2 73,163.7 			"/>
		</g>
		<g>
			<polygon fill="#A559F7" points="123.5,100.6 199.6,158.3 199.6,177.6 126,163.7 			"/>
			<polygon fill="#9B47F7" points="123.2,100 152.7,122.8 156.9,169.5 126,163.7 125.1,114.8 			"/>
			<polygon fill="#9134F6" points="129.5,159.9 135,116.6 123.2,100 125.1,118.2 126,163.7 			"/>
		</g>
		<polygon fill="#9740F6" points="83.1,35.7 73.9,114.8 73.9,173.5 125.1,173.5 125.1,109.5 114.3,34.3 		"/>
		<polygon fill="#9134F6" points="94.1,109.5 73.9,114.8 83.1,35.7 94.1,63.6 95.7,109.5 		"/>
		<polygon fill="#8C2BF5" points="105,109.5 125.2,114.8 114.2,33.8 105,63.6 103.4,109.5 		"/>
		<polygon fill="#8C2BF5" points="95.7,109.5 73.9,174.9 73.9,114.8 		"/>
		<polygon fill="#8D2DF5" points="103.4,109.5 125.2,174.9 125.2,120.2 125.2,114.8 		"/>
		<polygon fill="#8218F5" points="114.2,142.1 121.6,164 125.1,171.6 125.2,122.3 124.9,115.2 		"/>
		<polygon fill="#F63DA0" points="93,10 83.1,35.7 83.1,73.5 94.9,104.3 103.9,104.3 114.3,73.5 114.3,34.3 107.2,10 		"/>
		<polygon fill="#F972BA" points="114.3,34.3 83.1,35.7 83.1,73.5 		"/>
		<polygon fill="#F5188E" points="114.3,73.5 83.1,73.5 114.3,34.3 		"/>
		<g>
			<polygon fill="#FFDB27" points="76.4,169.1 72.6,190 67,175.8 64.6,204.2 60.6,181.1 54.2,201.7 53.7,178.3 48.6,189 49.9,168.2 
							"/>
			<polygon fill="#FFA327" points="52.5,165.1 51.7,192.4 59,174.8 55.6,211.6 63.1,182.4 64.6,209.6 69.3,179.6 71.4,194 
				74.3,167.1 			"/>
			<polygon fill="#FFC229" points="55.1,163.3 56.2,190.4 59.3,172.1 59.6,209 62.1,179.1 64.5,205.8 65.5,175.5 67.5,189.5 
				67.6,162.4 			"/>
			<g>
				<polygon fill="#DB96AF" points="75.8,124.7 75.8,173.5 49.3,173.5 49.3,124.7 60,114.8 70.7,115.2 				"/>
				<polygon fill="#C45079" points="66.3,173.5 66.3,128.5 75.8,124.7 75.8,171.6 				"/>
				<polygon fill="#C4527B" points="70.7,115.2 66.3,128.5 75.8,124.7 				"/>
				<polygon fill="#DFA1B7" points="49.3,124.7 56.9,128.5 56.9,173.5 49.3,171.6 				"/>
				<rect x="56.9" y="173.5" fill="#E3ACBF" width="9.5" height="2.8"/>
				<polygon fill="#D27A99" points="57.8,176.4 49.3,174.5 49.3,171.6 57.8,173.5 				"/>
				<polygon fill="#B52458" points="75.8,174.5 66.3,176.4 66.3,173.5 75.8,171.6 				"/>
				<polygon fill="#D27A99" points="60,114.8 56.9,128.5 49.3,124.7 				"/>
				<polyline fill="#9740F6" points="49.3,145.1 51,147.5 56.9,149.1 66.3,149.1 75.8,145.4 75.8,154.6 66.3,158.3 56.9,158.3 
					49.3,154.9 				"/>
			</g>
			<polygon fill="#E6B5C6" points="66.3,128.5 56.9,128.5 60,114.8 71.1,115.7 			"/>
		</g>
		<g>
			<polygon fill="#FFDB27" points="124.1,171.8 127.9,192.7 133.6,178.5 135.9,206.9 139.9,183.8 146.4,204.4 146.8,181 
				151.9,191.7 150.6,170.9 			"/>
			<polygon fill="#FFA327" points="148.1,167.9 148.8,195.1 141.6,177.5 144.9,214.3 137.4,185.1 135.9,212.3 131.2,182.3 
				129.1,196.7 126.3,169.8 			"/>
			<polygon fill="#FFC229" points="145.5,166.1 144.3,193.2 141.2,174.8 141,211.7 138.4,181.8 136,208.5 135.1,178.2 133,192.2 
				133,165.1 			"/>
			<g>
				<polygon fill="#DB96AF" points="123.2,123.8 123.2,172.6 149.7,172.6 149.7,123.8 139,113.8 128.3,114.3 				"/>
				<polygon fill="#C45079" points="132.7,172.6 132.7,127.5 123.2,123.8 123.2,170.7 				"/>
				<polygon fill="#C4527B" points="128.3,114.3 132.7,127.5 123.2,123.8 				"/>
				<polygon fill="#DFA1B7" points="149.7,123.8 142.1,127.5 142.1,172.6 149.7,170.7 				"/>
				<rect x="132.7" y="172.6" fill="#E3ACBF" width="9.5" height="2.8"/>
				<polygon fill="#D27A99" points="141.2,175.4 149.7,173.5 149.7,170.7 141.2,172.6 				"/>
				<polygon fill="#B52458" points="123.2,173.5 132.7,175.4 132.7,172.6 123.2,170.7 				"/>
				<polygon fill="#D27A99" points="139,113.8 142.1,127.5 149.7,123.8 				"/>
				<polyline fill="#9740F6" points="149.7,144.1 148,146.5 142.1,148.2 132.7,148.2 123.2,144.4 123.2,153.6 132.7,157.4 
					142.1,157.4 149.7,153.9 				"/>
			</g>
			<polygon fill="#E6B5C6" points="132.7,127.5 142.1,127.5 139,113.8 127.9,114.8 			"/>
		</g>
		<g>
			<g>
				<polygon fill="#E2AABE" points="106.5,136.4 106.5,134.5 91.3,134.5 91.3,136.4 89.4,136.4 89.4,140.5 108.4,140.5 108.4,136.4 
									"/>
				<rect x="91.3" y="163.2" fill="#E2AABE" width="1.9" height="1.9"/>
				<rect x="104.6" y="163.2" fill="#E2AABE" width="1.9" height="1.9"/>
			</g>
			<g>
				<polygon fill="#E400F5" points="104.6,140.2 104.6,134.5 93.2,134.5 93.2,140.3 87.3,140.3 87.3,144.7 110.4,144.7 110.4,140.2 
									"/>
				<rect x="95.1" y="163.2" fill="#E400F5" width="7.6" height="1.9"/>
				<rect x="106.5" y="162.7" fill="#E400F5" width="1.9" height="2.4"/>
				<rect x="89.4" y="162.5" fill="#E400F5" width="1.9" height="2.6"/>
			</g>
			<g>
				<polygon fill="#1A1A1A" points="108.4,138.3 106.5,138.3 106.5,136.4 102.7,136.4 102.7,134.5 95.1,134.5 95.1,136.4 
					91.3,136.4 91.3,138.3 89.4,138.3 89.4,141.3 108.4,141.3 				"/>
				<rect x="87.3" y="142.2" fill="#1A1A1A" width="23.1" height="4.2"/>
			</g>
			<rect x="87.3" y="162.9" fill="#151515" width="2.1" height="2.2"/>
			<rect x="108.4" y="163.2" fill="#151515" width="2" height="1.9"/>
			<g>
				<polygon points="108.4,144.1 108.4,140.2 106.5,140.2 106.5,138.3 104.6,138.3 104.6,136.4 100.8,136.4 100.8,134.5 97,134.5 
					97,136.4 93.2,136.4 93.2,138.3 91.3,138.3 91.3,140.2 89.4,140.2 89.4,144.1 87.3,144.1 87.3,163.2 97,163.2 97,165.1 
					100.8,165.1 100.8,163.2 110.4,163.2 110.4,144.1 				"/>
				<g>
					<rect x="91.3" y="142.2" fill="#FFFFFF" width="1.9" height="1.9"/>
					<rect x="91.3" y="146" fill="#FFFFFF" width="1.9" height="1.9"/>
					<rect x="95.1" y="142.2" fill="#FFFFFF" width="1.9" height="1.9"/>
					<rect x="95.1" y="146" fill="#FFFFFF" width="1.9" height="1.9"/>
					<rect x="93.2" y="144.1" fill="#FFFFFF" width="1.9" height="1.9"/>
				</g>
				<g>
					<rect x="100.8" y="142.2" fill="#FFFFFF" width="1.9" height="1.9"/>
					<rect x="100.8" y="146" fill="#FFFFFF" width="1.9" height="1.9"/>
					<rect x="104.6" y="142.2" fill="#FFFFFF" width="1.9" height="1.9"/>
					<rect x="104.6" y="146" fill="#FFFFFF" width="1.9" height="1.9"/>
					<rect x="102.7" y="144.1" fill="#FFFFFF" width="1.9" height="1.9"/>
				</g>
			</g>
		</g>
	</g>
</g>
</svg>
